<?xml version="1.0" standalone="no"?>
<!DOCTYPE svg PUBLIC "-//W3C//DTD SVG 20010904//EN"
 "http://www.w3.org/TR/2001/REC-SVG-20010904/DTD/svg10.dtd">
<svg version="1.0" xmlns="http://www.w3.org/2000/svg"
 width="230.000000pt" height="133.000000pt" viewBox="0 0 230.000000 133.000000"
 preserveAspectRatio="xMidYMid meet">

<g transform="translate(0.000000,133.000000) scale(0.100000,-0.100000)"
fill="#000000" stroke="none">
<path d="M995 1206 c-108 -21 -183 -45 -260 -84 -264 -132 -451 -364 -515
-640 -22 -94 -22 -114 2 -94 7 5 24 12 37 14 20 3 26 13 42 75 62 248 230 454
463 568 308 152 660 117 935 -93 136 -104 239 -251 294 -421 32 -97 32 -98 74
-113 24 -9 43 -13 43 -9 -1 26 -45 173 -69 231 -60 141 -178 291 -301 383 -90
68 -230 136 -338 163 -120 32 -302 40 -407 20z"/>
<path d="M1026 785 c-145 -37 -288 -152 -355 -286 l-32 -64 40 -13 c22 -7 54
-29 70 -48 35 -40 41 -41 41 -13 0 41 54 131 112 184 76 71 146 98 253 98 116
0 181 -28 266 -112 69 -69 109 -147 109 -214 l0 -32 19 41 c22 48 54 74 93 74
36 0 36 18 -1 95 -61 128 -175 229 -311 275 -84 29 -222 35 -304 15z"/>
</g>
</svg>
